<svg width="24" height="24" viewBox="0 0 24 24" fill="none" xmlns="http://www.w3.org/2000/svg">
<path fill-rule="evenodd" clip-rule="evenodd" d="M15.9683 17.9403C15.9683 18.4909 15.5179 18.9414 14.9673 18.9414H13.4194C12.8688 18.9414 12.4183 18.4909 12.4183 17.9403C12.4183 17.3897 12.8688 16.9393 13.4194 16.9393H14.9672C15.5178 16.9393 15.9683 17.3897 15.9683 17.9403Z" fill="#64B5F6"/>
<path fill-rule="evenodd" clip-rule="evenodd" d="M15.9683 17.9403C15.9683 18.4909 15.5179 18.9414 14.9673 18.9414H13.4194C13.0237 18.9414 12.6797 18.7087 12.5175 18.3735C12.6487 18.437 12.7957 18.4726 12.9506 18.4726H14.4984C15.049 18.4726 15.4995 18.0221 15.4995 17.4716C15.4995 17.3167 15.4638 17.1697 15.4003 17.0385C15.7357 17.2007 15.9683 17.5447 15.9683 17.9403Z" fill="#42A5F5"/>
<path fill-rule="evenodd" clip-rule="evenodd" d="M12.3183 0.927124C13.3223 0.927124 14.1438 1.74861 14.1438 2.75262V11.291C14.1438 12.295 13.3223 13.1165 12.3183 13.1165C11.3143 13.1165 10.4928 12.295 10.4928 11.291V2.75262C10.4928 1.74861 11.3143 0.927124 12.3183 0.927124Z" fill="#FFDA2D"/>
<path fill-rule="evenodd" clip-rule="evenodd" d="M12.3183 0.927124C13.3223 0.927124 14.1438 1.74861 14.1438 2.75262V11.291C14.1438 12.295 13.3223 13.1165 12.3183 13.1165C12.2209 13.1165 12.1252 13.1086 12.0318 13.0937C12.9009 12.9552 13.5707 12.1976 13.5707 11.291V2.75262C13.5707 1.84601 12.9009 1.08842 12.0318 0.949858C12.1252 0.934952 12.2209 0.927124 12.3183 0.927124Z" fill="#FFC700"/>
<path fill-rule="evenodd" clip-rule="evenodd" d="M22.0922 0.421875C22.7967 0.421875 23.3678 0.992953 23.3678 1.69739C23.3678 2.40183 22.7967 2.97291 22.0922 2.97291C21.3878 2.97291 20.8167 2.40183 20.8167 1.69739C20.8167 0.992953 21.3878 0.421875 22.0922 0.421875ZM2.54433 0.421875C3.24877 0.421875 3.81985 0.992953 3.81985 1.69739C3.81985 2.40183 3.24877 2.97291 2.54433 2.97291C1.83989 2.97291 1.26877 2.40183 1.26877 1.69739C1.26882 0.992953 1.83989 0.421875 2.54433 0.421875Z" fill="#64B5F6"/>
<path fill-rule="evenodd" clip-rule="evenodd" d="M22.6162 0.534119C23.0593 0.733994 23.3678 1.17968 23.3678 1.69742C23.3678 2.40185 22.7967 2.97293 22.0923 2.97293C21.7296 2.97293 21.4023 2.82157 21.1701 2.57857C21.3299 2.65067 21.5072 2.69079 21.694 2.69079C22.3985 2.69079 22.9695 2.11971 22.9695 1.41527C22.9695 1.07351 22.835 0.763103 22.6162 0.534119ZM3.06826 0.534119C3.51141 0.733994 3.8199 1.17968 3.8199 1.69742C3.8199 2.40185 3.24882 2.97293 2.54438 2.97293C2.18171 2.97293 1.85438 2.82157 1.62216 2.57857C1.78201 2.65067 1.95938 2.69079 2.14608 2.69079C2.85052 2.69079 3.4216 2.11971 3.4216 1.41527C3.4216 1.07351 3.28716 0.76315 3.06826 0.534119Z" fill="#42A5F5"/>
<path fill-rule="evenodd" clip-rule="evenodd" d="M1.92914 6.90851H22.7075C23.0707 6.90851 23.3678 7.20565 23.3678 7.56884V11.6136C23.3678 11.9768 23.0707 12.2739 22.7075 12.2739H1.92914C1.56595 12.2739 1.26881 11.9768 1.26881 11.6136V7.56884C1.26881 7.2056 1.56595 6.90851 1.92914 6.90851Z" fill="#8D9CA8"/>
<path fill-rule="evenodd" clip-rule="evenodd" d="M23.3678 10.8781V11.6135C23.3678 11.9767 23.0707 12.2739 22.7075 12.2739H1.92914C1.56595 12.2739 1.26881 11.9767 1.26881 11.6135V10.8781C1.26881 11.2413 1.56595 11.5384 1.92914 11.5384H22.7075C23.0707 11.5384 23.3678 11.2413 23.3678 10.8781Z" fill="#7A8C98"/>
<path fill-rule="evenodd" clip-rule="evenodd" d="M8.25188 3.49652H16.3847C19.0307 3.49652 21.1956 5.6614 21.1956 8.30744V10.8749C21.1956 13.521 19.0307 15.6858 16.3847 15.6858H8.25188C5.60588 15.6858 3.44096 13.521 3.44096 10.8749V8.30744C3.441 5.6614 5.60588 3.49652 8.25188 3.49652Z" fill="#64B5F6"/>
<path fill-rule="evenodd" clip-rule="evenodd" d="M19.2815 4.47314C20.4423 5.35355 21.1956 6.74672 21.1956 8.30738V10.8749C21.1956 13.5209 19.0307 15.6858 16.3847 15.6858H8.25188C6.69117 15.6858 5.29805 14.9325 4.41764 13.7716C5.22488 14.3838 6.22908 14.7483 7.31438 14.7483H15.4472C18.0932 14.7483 20.2581 12.5834 20.2581 9.93736V7.36988C20.2581 6.28458 19.8937 5.28038 19.2815 4.47314Z" fill="#42A5F5"/>
<path fill-rule="evenodd" clip-rule="evenodd" d="M15.6606 12.4785C15.6606 13.0291 15.2101 13.4795 14.6595 13.4795H9.97716C9.42657 13.4795 8.9761 13.0291 8.9761 12.4785C8.9761 11.9279 9.42657 11.4774 9.97716 11.4774H14.6595C15.21 11.4774 15.6606 11.9279 15.6606 12.4785Z" fill="#EFF4F7"/>
<path fill-rule="evenodd" clip-rule="evenodd" d="M9.54399 13.3804C9.20874 13.2182 8.97605 12.8742 8.97605 12.4785C8.97605 11.9279 9.42652 11.4774 9.97711 11.4774H14.6595C15.0551 11.4774 15.3991 11.7101 15.5613 12.0454C15.4301 11.9818 15.2831 11.9462 15.1282 11.9462H10.4459C9.89527 11.9462 9.4448 12.3966 9.4448 12.9472C9.4448 13.1022 9.48047 13.2492 9.54399 13.3804Z" fill="#E2E3E3"/>
<path fill-rule="evenodd" clip-rule="evenodd" d="M16.579 6.2641C17.5192 6.2641 18.2814 7.02629 18.2814 7.96655C18.2814 8.90677 17.5192 9.66901 16.579 9.66901C15.6387 9.66901 14.8765 8.90677 14.8765 7.96655C14.8765 7.02629 15.6387 6.2641 16.579 6.2641ZM8.05762 6.2641C8.99789 6.2641 9.76008 7.02629 9.76008 7.96655C9.76008 8.90677 8.99784 9.66901 8.05762 9.66901C7.11741 9.66901 6.35517 8.90677 6.35517 7.96655C6.35517 7.02629 7.11736 6.2641 8.05762 6.2641Z" fill="#E6F8FF"/>
<path fill-rule="evenodd" clip-rule="evenodd" d="M16.579 6.2641C17.169 6.2641 17.6888 6.56424 17.9942 7.02005C17.7235 6.83869 17.398 6.73285 17.0477 6.73285C16.1075 6.73285 15.3453 7.49504 15.3453 8.4353C15.3453 8.78555 15.4511 9.1111 15.6325 9.38176C15.1766 9.07627 14.8765 8.55647 14.8765 7.96655C14.8765 7.02629 15.6387 6.2641 16.579 6.2641ZM8.05762 6.2641C8.64759 6.2641 9.16744 6.56424 9.47287 7.0201C9.20222 6.83874 8.87667 6.73285 8.52637 6.73285C7.58616 6.73285 6.82392 7.49504 6.82392 8.4353C6.82392 8.7856 6.92976 9.1111 7.11112 9.38176C6.65526 9.07627 6.35517 8.55647 6.35517 7.96655C6.35517 7.02629 7.11736 6.2641 8.05762 6.2641Z" fill="#D0F1FF"/>
<path fill-rule="evenodd" clip-rule="evenodd" d="M10.032 23.5781H1.30045C0.93239 23.5781 0.632202 23.2779 0.632202 22.9099V17.4386C0.632202 17.0706 0.93239 16.7704 1.30045 16.7704H6.26587L9.09525 14.7388V16.7704H10.032C10.4 16.7704 10.7002 17.0706 10.7002 17.4386V22.9099C10.7002 23.2779 10.4001 23.5781 10.032 23.5781Z" fill="#FFDA2D"/>
<path fill-rule="evenodd" clip-rule="evenodd" d="M10.032 23.5781H1.30045C0.942046 23.5781 0.648046 23.2935 0.632858 22.9387C0.635952 22.9387 0.639093 22.9388 0.642186 22.9388H9.37369C9.74175 22.9388 10.0419 22.6386 10.0419 22.2706V16.7993C10.0419 16.7897 10.0417 16.7801 10.0413 16.7705C10.4051 16.7755 10.7002 17.0737 10.7002 17.4387V22.9099C10.7002 23.2779 10.4001 23.5781 10.032 23.5781ZM8.43703 15.2113L9.09529 14.7387V16.7703H8.43703V15.2113Z" fill="#FFC700"/>
<path fill-rule="evenodd" clip-rule="evenodd" d="M8.43956 19.0025C8.64666 19.0025 8.81456 19.1704 8.81456 19.3775C8.81456 19.5846 8.64666 19.7525 8.43956 19.7525H2.35706C2.14997 19.7525 1.98206 19.5846 1.98206 19.3775C1.98206 19.1704 2.14997 19.0025 2.35706 19.0025H8.43956ZM8.43956 21.5334C8.64666 21.5334 8.81456 21.7013 8.81456 21.9084C8.81456 22.1155 8.64666 22.2834 8.43956 22.2834H2.35706C2.14997 22.2834 1.98206 22.1155 1.98206 21.9084C1.98206 21.7013 2.14997 21.5334 2.35706 21.5334H8.43956Z" fill="#FFC700"/>
<path fill-rule="evenodd" clip-rule="evenodd" d="M9.08245 18.909C9.08245 19.1161 8.91469 19.2839 8.70754 19.2839H2.6249C2.418 19.2839 2.25 19.1161 2.25 18.909C2.25 18.7018 2.418 18.5338 2.6249 18.5338H8.70754C8.91469 18.5338 9.08245 18.7018 9.08245 18.909ZM9.08245 21.4395C9.08245 21.6469 8.91469 21.8147 8.70754 21.8147H2.6249C2.418 21.8147 2.25 21.6469 2.25 21.4395C2.25 21.2324 2.418 21.0646 2.6249 21.0646H8.70754C8.91469 21.0646 9.08245 21.2324 9.08245 21.4395ZM14.6598 13.1048H9.97725C9.63197 13.1048 9.351 12.8236 9.351 12.4785C9.351 12.133 9.63197 11.8523 9.97725 11.8523H14.6598C15.0046 11.8523 15.2856 12.133 15.2856 12.4785C15.2856 12.8236 15.0046 13.1048 14.6598 13.1048ZM14.6598 11.1023H9.97725C9.21839 11.1023 8.60123 11.7197 8.60123 12.4786C8.60123 13.2375 9.21839 13.8548 9.97725 13.8548H14.6598C15.4182 13.8548 16.0356 13.2375 16.0356 12.4786C16.0356 11.7197 15.4182 11.1023 14.6598 11.1023ZM16.5792 9.29391C15.847 9.29391 15.2518 8.69859 15.2518 7.96627C15.2518 7.23459 15.847 6.63886 16.5792 6.63886C17.3111 6.63886 17.9063 7.23459 17.9063 7.96627C17.9064 8.69859 17.3111 9.29391 16.5792 9.29391ZM16.5792 5.88886C15.4337 5.88886 14.5017 6.82125 14.5017 7.96631C14.5017 9.11203 15.4336 10.044 16.5792 10.044C17.7244 10.044 18.6564 9.11198 18.6564 7.96631C18.6564 6.82125 17.7245 5.88886 16.5792 5.88886ZM8.05767 9.29391C7.32576 9.29391 6.73026 8.69859 6.73026 7.96627C6.73026 7.23459 7.32576 6.63886 8.05767 6.63886C8.78958 6.63886 9.38508 7.23459 9.38508 7.96627C9.38508 8.69859 8.78958 9.29391 8.05767 9.29391ZM10.1351 7.96627C10.1351 6.8212 9.20315 5.88881 8.05767 5.88881C6.91219 5.88881 5.98026 6.8212 5.98026 7.96627C5.98026 9.11198 6.91223 10.0439 8.05767 10.0439C9.20315 10.0439 10.1351 9.11198 10.1351 7.96627ZM22.9927 11.6136C22.9927 11.7708 22.8648 11.8987 22.7078 11.8987H21.4688C21.5353 11.5678 21.5705 11.2252 21.5705 10.875V8.30756C21.5705 7.95698 21.5353 7.6148 21.4688 7.28344H22.7078C22.8647 7.28344 22.9927 7.41141 22.9927 7.56881V11.6136ZM20.8205 10.8751V8.30761C20.8205 5.86125 18.8306 3.87136 16.3846 3.87136H8.25197C5.80603 3.87136 3.81614 5.86125 3.81614 8.30761V10.8751C3.81614 13.0953 5.51334 15.0019 7.70442 15.2755L8.87667 14.4342C8.99095 14.3522 9.14128 14.3409 9.26662 14.4051C9.39173 14.4694 9.47044 14.5983 9.47044 14.7389V15.3107H16.3847C18.8306 15.3107 20.8205 13.321 20.8205 10.8751ZM10.0321 17.1454H9.09553C8.88815 17.1454 8.72039 16.9777 8.72039 16.7705V15.4696L6.48468 17.0752C6.42103 17.1207 6.34453 17.1455 6.26606 17.1455H1.30059C1.13878 17.1455 1.00725 17.2768 1.00725 17.4383V22.9095C1.00725 23.0714 1.13878 23.2031 1.30059 23.2031H10.0321C10.1937 23.2031 10.3252 23.0714 10.3252 22.9095V17.4383C10.3252 17.2767 10.1937 17.1454 10.0321 17.1454ZM1.92928 11.8987C1.77187 11.8987 1.6439 11.7707 1.6439 11.6136V7.56881C1.6439 7.41141 1.77192 7.28344 1.92928 7.28344H3.16781C3.10125 7.6148 3.06614 7.95698 3.06614 8.30756V10.875C3.06614 11.2214 3.10106 11.5641 3.16894 11.8987H1.92928ZM10.8679 2.75259C10.8679 1.95281 11.5186 1.30228 12.3184 1.30228C13.1182 1.30228 13.7692 1.95281 13.7692 2.75259V3.12131H10.8679V2.75259ZM14.9673 18.5663H13.4195C13.0742 18.5663 12.7932 18.2854 12.7932 17.9406C12.7932 17.595 13.0742 17.3143 13.4195 17.3143H14.9673C15.3128 17.3143 15.5935 17.595 15.5935 17.9406C15.5935 18.2854 15.3127 18.5663 14.9673 18.5663ZM1.64386 1.69725C1.64386 1.20075 2.04792 0.796922 2.54442 0.796922C3.04111 0.796922 3.44498 1.2008 3.44498 1.69725C3.44498 2.19417 3.04111 2.59781 2.54442 2.59781C2.04797 2.59781 1.64386 2.19422 1.64386 1.69725ZM21.1916 1.69725C21.1916 1.20075 21.5959 0.796922 22.0922 0.796922C22.5891 0.796922 22.9927 1.2008 22.9927 1.69725C22.9927 2.19417 22.5891 2.59781 22.0922 2.59781C21.5959 2.59781 21.1916 2.19422 21.1916 1.69725ZM22.7078 6.53344H22.4673V3.30478C23.197 3.13411 23.7427 2.4787 23.7427 1.6973C23.7427 0.787406 23.0025 0.046875 22.0922 0.046875C21.1823 0.046875 20.4418 0.787406 20.4418 1.69725C20.4418 2.47866 20.9873 3.13406 21.7173 3.30473V6.53339H21.2579C20.5318 4.54505 18.6217 3.12127 16.3846 3.12127H14.5192V2.75255C14.5192 1.53942 13.5318 0.552187 12.3184 0.552187C11.1051 0.552187 10.1179 1.53937 10.1179 2.75255V3.12127H8.25201C6.01518 3.12127 4.10489 4.54505 3.3787 6.53339H2.91937V3.30478C3.64926 3.13411 4.19508 2.4787 4.19508 1.6973C4.19503 0.787406 3.4545 0.046875 2.54447 0.046875C1.63444 0.046875 0.893857 0.787406 0.893857 1.69725C0.893857 2.47866 1.43944 3.13406 2.16956 3.30473V6.53339H1.92928C1.35829 6.53339 0.893857 6.99783 0.893857 7.56876V11.6136C0.893857 12.1845 1.35829 12.6487 1.92928 12.6487H3.38048C3.6119 13.2801 3.9667 13.8665 4.43222 14.3743C5.09803 15.0997 5.94356 15.6155 6.87239 15.8732L6.14512 16.3953H1.30059C0.725201 16.3953 0.257248 16.8633 0.257248 17.4382V22.9095C0.257248 23.4853 0.725201 23.953 1.30059 23.953H10.0321C10.6072 23.953 11.0752 23.4853 11.0752 22.9095V17.4383C11.0752 16.8633 10.6073 16.3954 10.0321 16.3954H9.47039V16.0607H16.3846C18.6217 16.0607 20.5318 14.6371 21.2579 12.6488H21.7173V14.3296C21.7173 16.1137 20.2661 17.5654 18.4815 17.5654H16.2909C16.1273 16.9884 15.5964 16.5642 14.9673 16.5642H13.4195C12.6606 16.5642 12.0434 17.1816 12.0434 17.9405C12.0434 18.6993 12.6606 19.3163 13.4195 19.3163H14.9673C15.5964 19.3163 16.1273 18.8923 16.2909 18.3154H18.4815C20.6795 18.3154 22.4673 16.5271 22.4673 14.3296V12.6487H22.7078C23.2786 12.6487 23.7428 12.1845 23.7428 11.6136V7.56876C23.7427 6.99783 23.2785 6.53344 22.7078 6.53344Z" fill="black"/>
</svg>